<svg xmlns="http://www.w3.org/2000/svg" viewBox="0 0 256 256">
  <symbol id="floppy-disk">
    <path d="M128 128h32v32h-32zm-32 0V96h32v32zm0 0v32H64v-32zm96-64h-32v32h32z"/>
    <path d="M0 0v256h256V0zm224 224h-64v-32h32v-32h32zm-64-64h32v-32h32V32H32v128h32v32H32v32h96v-32h32z"/>
  </symbol>
</svg>

<svg xmlns="http://www.w3.org/2000/svg" viewBox="0 0 27 24">
  <symbol id="heart">
    <path d="M6 0H3v3h3zM9 0H6v3h3zM3 3H0v3h3zM3 6H0v3h3zM3 9H0v3h3zM12 0H9v3h3zM6 12H3v3h3zM9 15H6v3h3zM12 18H9v3h3zM21 0h3v3h-3zM18 0h3v3h-3zM24 3h3v3h-3zM24 6h3v3h-3zM24 9h3v3h-3zM15 0h3v3h-3zM21 12h3v3h-3zM18 15h3v3h-3zM15 18h3v3h-3zM15 3h-3v3h3zM15 21h-3v3h3z"/>
  </symbol>
</svg>